<svg width="300" height="300" viewBox="0 0 300 300" fill="none" xmlns="http://www.w3.org/2000/svg">
<g clip-path="url(#clip0_73_217)">
<path d="M0 154.5H300V300H0V154.5Z" fill="white"/>
<path d="M233.944 175.028C225.139 175.028 219.111 181.056 219.111 189.167C219.111 197.278 225.167 203.306 233.944 203.306C242.75 203.306 248.778 197.278 248.778 189.167C248.806 181.056 242.75 175.028 233.944 175.028ZM233.944 200.333C228.417 200.333 224.361 195.389 224.361 189.167C224.361 182.944 228.444 178 233.944 178C239.472 178 243.528 182.944 243.528 189.167C243.556 195.389 239.472 200.333 233.944 200.333Z" fill="#E4251B"/>
<path d="M94.2222 189.222C94.2222 185.639 94.3889 180.833 94.4722 177.583C94.5 176.222 93.8056 175.5 92.4444 175.5H88.7222C89.5278 177.972 89.4722 182.417 89.4722 189.222C89.4722 192.806 89.2222 197.611 89.1389 200.861C89.1111 202.222 89.8056 202.944 91.1667 202.944H94.9722C94.1667 200.472 94.2222 196 94.2222 189.222Z" fill="#E4251B"/>
<path d="M209.583 189.417H205.861C206.583 191.639 206.611 194.139 206.611 199.556C205.111 200.083 203.361 200.278 201.639 200.278C185.833 200.278 186.083 177.972 199.861 177.972C204.306 177.972 207.417 180.194 208.056 182.722C208.667 181.861 210.222 180.139 210.222 178.944C210.222 176.833 206.389 175.083 200.361 175.083C180.556 175.083 178.694 203.361 200.389 203.361C203.417 203.361 209.028 202.833 211.417 201.5C211.417 197.917 211.583 194.75 211.667 191.528C211.667 190.139 210.944 189.417 209.583 189.417Z" fill="#E4251B"/>
<path d="M70.0833 191.556C74.9167 190.528 77.75 187.306 77.75 182.778C77.75 178.694 74.3889 175.472 67.75 175.472H57.4444C58.25 177.944 58.1944 182.389 58.1944 189.194C58.1944 192.778 57.9444 197.583 57.8611 200.833C57.8333 202.194 58.5278 202.917 59.8889 202.917H63.6944C63 200.778 62.9444 197.194 62.9444 191.917H65.2222C72.5278 203.528 77.6944 207.167 84.0556 205.583C78.5833 203.111 74.5278 197.583 70.0833 191.556ZM62.9444 189.444C62.9444 186.111 63.1111 181.444 63.1944 178.222C64.6111 178.111 65.7778 178.056 66.4444 178.056C70.5 178.056 72.8056 180.139 72.8056 183.417C72.8056 187.556 69.8611 189.444 66.1944 189.444H62.9444Z" fill="#E4251B"/>
<path d="M151.833 175.5H149.167C149.111 177.417 147.722 179.889 146.139 182.528C145.139 184.222 143.917 186.056 142.639 188.056C141 185.306 138.444 180.389 136.75 177C136.278 176.083 135.333 175.5 134.306 175.5H129.361C133.833 181.667 137.5 188.056 139.583 191.722C139.528 194.778 139.361 198.444 139.278 201.028C139.25 202.278 139.889 202.944 141.139 202.944H145.111C144.417 200.833 144.417 196.722 144.417 191.083C146.806 186.944 149.083 183.333 152.944 177.639C153.75 176.5 153.389 175.5 151.833 175.5Z" fill="#E4251B"/>
<path d="M164.306 181.889C164.306 179.417 166.472 178 168.944 178C171.833 178 173.639 179.417 175 181.389C175.556 180.639 176.472 179.472 176.472 178.278C176.472 176.417 173.889 175.111 169.306 175.111C164.417 175.111 159.806 177.722 159.806 182.889C159.806 192.083 172.889 189.583 172.889 195.583C172.889 198.139 171 200.278 167.833 200.278C164.028 200.278 161.917 198.333 160.333 195.944C159.833 196.972 159.556 198.028 159.556 199.167C159.556 201.972 162.667 203.306 167.472 203.306C173.111 203.306 177.333 200.194 177.333 194.25C177.333 185.639 164.306 187.667 164.306 181.889Z" fill="#E4251B"/>
<path d="M121.5 175.5H106.75C107.556 177.972 107.5 182.417 107.5 189.222C107.5 192.806 107.25 197.611 107.167 200.861C107.139 202.222 107.833 202.944 109.194 202.944H113C112.222 200.556 112.25 196.333 112.25 189.972H114.389C118.361 189.972 120.417 190.444 121.333 191.25C122.083 189.194 122.111 187.333 120.111 187.333H112.25C112.278 184.361 112.417 180.972 112.472 178.333H115.417C119.639 178.333 121.806 178.917 122.778 179.75C123.583 177.556 123.611 175.5 121.5 175.5Z" fill="#E4251B"/>
<path d="M273.333 198.444C272.306 199.278 270.444 200.111 266 200.111H262.444C262.194 197.528 262.222 193.944 262.222 189.194C262.222 185.611 262.389 180.806 262.472 177.556C262.5 176.194 261.806 175.472 260.444 175.472H256.722C257.528 177.944 257.472 182.389 257.472 189.194C257.472 192.778 257.222 197.583 257.139 200.833C257.111 202.194 257.806 202.917 259.167 202.917H270.806C272.611 202.944 273.972 201.5 273.333 198.444Z" fill="#E4251B"/>
<path d="M39.4167 175.5H29.75C30.5556 177.972 30.5 182.417 30.5 189.222C30.5 192.806 30.25 197.611 30.1667 200.861C30.1389 202.222 30.8333 202.944 32.1944 202.944H36C35.3333 200.861 35.25 197.389 35.25 192.306H38.1111C45.1111 192.306 49.3889 188.639 49.3889 182.889C49.4167 178.778 46.0556 175.5 39.4167 175.5ZM37.8889 189.806H35.2778C35.2778 189.611 35.2778 189.417 35.2778 189.222C35.2778 185.861 35.4444 181.389 35.5278 178.167C36.6389 178.083 37.5556 178.028 38.1389 178.028C42.1944 178.028 44.5 180.194 44.5 183.472C44.5 187.861 41.5556 189.806 37.8889 189.806Z" fill="#E4251B"/>
<path d="M182.139 222.472H164.194C165.778 225.944 165.444 240 165.444 246.722C165.444 253.167 165.083 261.917 164.972 267.722C164.917 270.222 165.889 271.194 168.361 271.194H180.611C198.861 271.194 208.194 260.528 208.194 245.444C208.194 230.167 197.583 222.472 182.139 222.472ZM179.667 267H173.639C173.278 262.778 173.139 255.917 173.139 246.722C173.139 240.472 173.389 232.167 173.5 226.417C175.194 226.278 176.944 226.222 178.639 226.222C187.639 226.222 199.583 230.333 199.583 246.722C199.583 263.111 189.778 267 179.667 267Z" fill="#E4251B"/>
<path d="M88.9167 246.722C85.9722 239.889 83.0833 233.222 81.3611 229.361C80.9167 228.333 79.8889 227.667 78.7778 227.667H77.3055C75.7778 232.806 72.8889 238.694 69.0278 246.722C66.25 252.5 63.5555 258.111 61.25 262.444C60.1111 264.556 60.8056 265.778 62.8056 265.778H65.9167C65.5 264.417 67.1389 259.861 69.5 254.278H84.1944C85.3333 257.222 86.4167 260.25 87.5278 263.472C88 264.861 89.2778 265.778 90.75 265.778H97.8611C95.9444 264.056 93.2778 256.861 88.9167 246.722ZM70.8055 251.278C72.8889 246.611 75.3055 241.528 77.3889 237.194C79.4167 242.25 81.25 246.75 83.0278 251.278H70.8055Z" fill="#E4251B"/>
<path d="M103.111 237.917H104.639C109.167 237.917 111.472 238.472 112.5 239.361C113.361 237.028 113.389 235.028 111.139 235.028H103.139C103.167 231.806 103.222 228.278 103.278 225.528H105.861C110.639 225.528 113.111 226.194 114.194 227.139C115.111 224.667 115.139 222.472 112.75 222.472H96.6389C97.5556 225.278 97.4722 230.333 97.4722 238.056C97.4722 242.111 97.1667 247.583 97.0833 251.278C97.0556 252.833 97.8611 253.639 99.3889 253.639H112.111C114.139 253.639 114.972 252.833 114.972 250.611V248.694C113.806 249.611 111.694 250.583 106.667 250.583H103.25C103.111 247.583 103.111 243.472 103.111 237.917Z" fill="#E4251B"/>
<path d="M235.25 225.111C236.222 223.694 235.75 222.444 233.833 222.444H230.528C230.444 224.806 228.75 227.861 226.778 231.139C225.667 232.972 224.389 234.944 223 237.083C220.972 233.583 218.167 228.139 216.222 224.306C215.639 223.167 214.472 222.444 213.194 222.444H207.056C212.167 229.528 216.444 236.806 219.111 241.444C219.083 245.417 218.806 250.556 218.722 254.056C218.694 255.611 219.5 256.417 221.028 256.417H225.972C225.083 253.694 225.139 248.306 225.139 240.889C227.944 236.139 230.722 231.778 235.25 225.111Z" fill="#E4251B"/>
<path d="M261.5 222.472H246.611C247.889 225.278 247.611 236.583 247.611 242C247.611 247.167 247.306 254.222 247.222 258.889C247.194 260.917 247.944 261.667 249.944 261.667H260.25C274.944 261.667 282.444 253.083 282.444 240.944C282.472 228.667 273.917 222.472 261.5 222.472ZM259.5 258.306H253.889C253.861 253.667 253.806 246.944 253.806 242C253.806 237 253.861 230.333 253.889 225.722C255.472 225.583 257.083 225.5 258.667 225.5C265.917 225.5 275.528 228.806 275.528 242C275.528 255.194 267.639 258.306 259.5 258.306Z" fill="#E4251B"/>
<path d="M248.667 239.833H233.778C235.056 242.639 234.778 253.944 234.778 259.361C234.778 264.528 234.472 271.583 234.389 276.25C234.361 278.278 235.111 279.028 237.111 279.028H247.417C262.111 279.028 269.611 270.444 269.611 258.306C269.611 246.028 261.056 239.833 248.667 239.833ZM246.667 275.667H241.056C241.028 271.028 240.972 264.306 240.972 259.361C240.972 254.361 241.028 247.694 241.056 243.083C242.639 242.944 244.25 242.861 245.833 242.861C253.083 242.861 262.694 246.167 262.694 259.361C262.694 272.556 254.806 275.667 246.667 275.667Z" fill="#E4251B"/>
<path d="M67.8889 270.556C64.2778 274.222 58.8055 276.222 53.0556 276.222C36.0278 276.222 27.8889 262.25 27.8889 248.639C27.8889 235.722 35.25 223.111 49.3056 223.111C58.6389 223.111 65.1389 228.639 66.5 234.667C67.8055 232.639 69.8889 229.583 69.8889 226.889C69.8889 222.139 62.25 218.222 50.1944 218.222C29.8056 218.167 18.8889 234.833 18.8889 251.111C18.8889 266.667 28.9167 281.861 50.2222 281.861C56.2778 281.861 62.7222 280.222 67.5 277.194C68.25 276.722 68.6111 275.861 68.5 275L67.8889 270.556Z" fill="#E4251B"/>
<path d="M142.444 251.944C150.722 249.778 155.528 243.972 155.528 235.972C155.528 228.389 149.278 222.472 137.028 222.472H120.361C121.972 226.417 121.611 240 121.611 246.75C121.611 253.194 121.25 261.972 121.139 267.75C121.083 270.25 122.056 271.222 124.528 271.222H130.444C129.722 269.139 129.417 262.833 129.333 252.889H134.778C149.694 277.222 159.806 284.278 171.389 281.361C160.167 276.25 151.667 264.472 142.444 251.944ZM129.306 249.389C129.306 248.528 129.306 247.639 129.306 246.722C129.306 240.417 129.556 232 129.667 226.25C131.694 226.111 133.361 226.028 134.417 226.028C142.694 226.028 147.472 230.306 147.472 237.028C147.472 245.5 141.444 249.361 133.944 249.361L129.306 249.389Z" fill="#E4251B"/>
<path d="M0 0H300V145.5H0V0Z" fill="white"/>
<path d="M131.5 97.0555H128.861C129.222 99.8333 126.278 106.417 121.278 117.694C118.583 110.972 116.333 105.611 114.056 99C113.667 97.8333 112.583 97.0555 111.361 97.0555H106.528C109.306 102.389 110.444 105.056 112.972 110.778C115 115.417 116.611 119.417 118.028 122.806C118.556 124.083 119.139 124.528 120.583 124.528H121.694C123.75 119.139 124.944 116.583 127.583 110.806C129.5 106.639 131.333 102.583 132.944 99.4444C133.611 98.1111 133.472 97.0555 131.5 97.0555Z" fill="#E4251B"/>
<path d="M274.417 99.1944C275.194 98.0278 274.833 97.0555 273.278 97.0555H270.611C270.556 98.9722 269.167 101.444 267.583 104.083C266.556 105.778 265.361 107.611 264.056 109.639C262.417 106.889 259.861 101.972 258.139 98.5833C257.667 97.6667 256.722 97.0833 255.694 97.0833H250.75C255.222 103.278 258.917 109.667 260.972 113.306C260.917 116.361 260.75 120.028 260.667 122.611C260.639 123.861 261.278 124.528 262.528 124.528H266.5C265.806 122.417 265.806 118.306 265.806 112.667C268.278 108.5 270.556 104.889 274.417 99.1944Z" fill="#E4251B"/>
<path d="M195.139 103.444C195.139 100.972 197.306 99.5555 199.778 99.5555C202.667 99.5555 204.472 100.972 205.833 102.944C206.389 102.194 207.306 101.028 207.306 99.8333C207.306 97.9722 204.722 96.6389 200.111 96.6389C195.222 96.6389 190.583 99.25 190.583 104.417C190.583 113.611 203.667 111.111 203.667 117.111C203.667 119.694 201.778 121.833 198.611 121.833C194.806 121.833 192.667 119.889 191.111 117.5C190.611 118.556 190.333 119.583 190.333 120.722C190.333 123.528 193.444 124.861 198.25 124.861C203.889 124.861 208.139 121.75 208.139 115.806C208.167 107.194 195.139 109.222 195.139 103.444Z" fill="#E4251B"/>
<path d="M175.583 113.111C180.417 112.083 183.25 108.861 183.25 104.333C183.25 100.25 179.861 97.0278 173.25 97.0278H162.917C163.722 99.5 163.667 103.972 163.667 110.75C163.667 114.333 163.417 119.139 163.333 122.389C163.306 123.75 164 124.472 165.361 124.472H169.167C168.472 122.333 168.417 118.75 168.417 113.444H170.694C178 125.083 183.194 128.722 189.528 127.111C184.083 124.667 180 119.167 175.583 113.111ZM168.444 111C168.444 107.639 168.611 102.972 168.694 99.75C170.111 99.6389 171.278 99.5833 171.944 99.5833C176 99.5833 178.333 101.667 178.333 104.972C178.333 109.111 175.389 111 171.722 111H168.444Z" fill="#E4251B"/>
<path d="M100.667 110.778C100.667 107.194 100.833 102.389 100.917 99.1389C100.944 97.7778 100.222 97.0555 98.8889 97.0555H95.1667C95.9722 99.5278 95.9167 104 95.9167 110.778C95.9167 114.361 95.6667 119.167 95.5833 122.417C95.5555 123.778 96.25 124.5 97.6111 124.5H101.417C100.611 122.028 100.667 117.556 100.667 110.778Z" fill="#E4251B"/>
<path d="M220.056 110.778C220.056 107.194 220.222 102.389 220.306 99.1389C220.333 97.7778 219.611 97.0555 218.278 97.0555H214.556C215.361 99.5278 215.306 104 215.306 110.778C215.306 114.361 215.056 119.167 214.972 122.417C214.944 123.778 215.639 124.5 217 124.5H220.806C219.972 122.028 220.056 117.556 220.056 110.778Z" fill="#E4251B"/>
<path d="M52.1667 97.0555H49.9444C50.75 99.5278 50.6111 104.972 50.6111 111.583C50.6111 117.361 48.4444 121.556 42.1667 121.556C36.2778 121.556 34.7778 117.278 34.7778 111.583C34.7778 108 34.8611 102.389 34.9444 99.1389C34.9722 97.7778 34.2778 97.0555 32.9167 97.0555H29.4167C29.9444 99.6389 29.9444 104 29.9444 110.778C29.9444 119.861 32.6111 124.944 41.5556 124.944C49.9722 124.944 54.0556 120.389 54.0556 110.778C54.0556 107.194 54.1389 102.389 54.2222 99.1389C54.2222 97.7778 53.5278 97.0555 52.1667 97.0555Z" fill="#E4251B"/>
<path d="M238.472 97.0555H226.75C224.639 97.0555 223.778 98.6389 224.583 100.833C225.417 100.472 229.361 100.111 233.528 100.111C233.694 102.667 233.722 106 233.722 110.806C233.722 114.389 233.472 119.194 233.389 122.444C233.361 123.806 234.056 124.528 235.417 124.528H239.222C238.417 122.056 238.472 117.583 238.472 110.806C238.472 107.528 238.528 103.194 238.611 100C241.167 100.111 243.778 100.278 245.333 100.278C247.444 100.278 248.306 98.75 247.5 96.5555C246.667 96.9167 242.667 97.0555 238.472 97.0555Z" fill="#E4251B"/>
<path d="M84.5833 97.0555H82.25C83.0556 99.5278 83 104 83 110.778C83 112.972 83 114.389 82.9722 115.917L66.3056 98.0833C65.6944 97.4444 64.8333 97.0833 63.9444 97.0833H61.6389C62.4444 99.5555 62.3889 104.028 62.3889 110.806C62.3889 114.389 62.1389 119.194 62.0556 122.444C62.0278 123.806 62.75 124.528 64.0833 124.528H66.4167C65.6111 122.056 65.6667 117.583 65.6667 110.806C65.6667 108.417 65.6667 106.972 65.6944 105.278L82.6389 123.5C83.25 124.139 84.1111 124.528 85 124.528H86.5833C86.2778 122.111 86.25 117.583 86.25 110.806C86.25 107.222 86.5 102.417 86.5833 99.1667C86.6389 97.7778 85.9444 97.0555 84.5833 97.0555Z" fill="#E4251B"/>
<path d="M148.139 121.694H144.444C144.194 119.111 144.222 115.361 144.222 110.639H146.361C150.333 110.639 152.389 111.111 153.306 111.917C154.056 109.861 154.083 107.972 152.083 107.972H144.25C144.306 105.222 144.389 102.222 144.472 99.8611H147.528C151.75 99.8611 153.917 100.444 154.889 101.278C155.694 99.1111 155.722 97.0555 153.611 97.0555H138.722C139.528 99.5278 139.472 104 139.472 110.778C139.472 114.361 139.222 119.167 139.139 122.417C139.111 123.778 139.806 124.5 141.167 124.5H153C154.806 124.5 156.167 123.056 155.528 120.028C154.444 120.833 152.583 121.694 148.139 121.694Z" fill="#E4251B"/>
<path d="M125.694 53.5278C133.972 51.3611 138.778 45.5555 138.778 37.5555C138.778 29.9722 132.528 24.0555 120.278 24.0555H103.611C105.222 28 104.861 41.5833 104.861 48.3333C104.861 54.7778 104.5 63.5555 104.389 69.3333C104.333 71.8333 105.306 72.8055 107.778 72.8055H113.694C112.972 70.7222 112.667 64.4167 112.583 54.4722H118.028C132.944 78.8055 143.056 85.8611 154.639 82.9444C143.417 77.8333 134.944 66.0555 125.694 53.5278ZM117.167 50.9722H112.556C112.556 50.1111 112.556 49.2222 112.556 48.3055C112.556 42 112.806 33.5833 112.917 27.8333C114.944 27.6944 116.611 27.6111 117.667 27.6111C125.944 27.6111 130.722 31.8889 130.722 38.6111C130.694 47.1111 124.667 50.9722 117.167 50.9722Z" fill="#E4251B"/>
<path d="M207.667 48.3333C207.667 43.3611 207.917 36.6944 208.028 32.1667C208.083 30.2778 207.083 29.25 205.194 29.25H199.278C200.389 32.6944 200.306 38.8889 200.306 48.3056C200.306 53.2778 199.944 59.9444 199.833 64.4722C199.778 66.3611 200.778 67.3889 202.667 67.3889H208.694C207.583 63.9444 207.667 57.75 207.667 48.3333Z" fill="#E4251B"/>
<path d="M166.389 24.0555H147.861C149.444 27.5278 149.111 41.5833 149.111 48.3333C149.111 54.7778 148.75 63.5555 148.639 69.3333C148.583 71.8333 149.556 72.8055 152.028 72.8055H164.833C183.111 72.8055 192.444 62.1389 192.444 47.0278C192.472 31.75 181.833 24.0555 166.389 24.0555ZM163.917 68.6111H157.333C156.972 64.3889 156.833 57.5278 156.833 48.3333C156.833 42.1111 157.083 33.8055 157.194 28.0555C159.083 27.8889 161 27.8055 162.889 27.8055C171.917 27.8055 183.833 31.9167 183.833 48.3333C183.833 64.7222 174.056 68.6111 163.917 68.6111Z" fill="#E4251B"/>
<path d="M243.194 24.0555H216.417C218 27.5278 217.667 41.5833 217.667 48.3333C217.667 54.7778 217.306 63.5555 217.194 69.3333C217.139 71.8333 218.111 72.8055 220.583 72.8055H226.5C225.667 70.3611 225.361 61.9722 225.361 48.6389H230.667C236.694 48.6389 239.778 49.2778 241.167 50.5C242.306 47.3889 242.361 44.8055 239.333 44.8055H225.389C225.444 39.2222 225.639 32.8333 225.722 28.1111H234.028C240.389 28.1111 243.667 28.9167 245.111 30.1944C246.333 26.8889 246.361 24.0555 243.194 24.0555Z" fill="#E4251B"/>
<path d="M270.167 25.3056C276.889 25.3056 280.361 26.1667 281.917 27.5C283.194 24.0278 283.25 21 279.861 21H250.167C251.722 24.5278 251.667 35.1667 251.667 48.3333C251.667 55.1389 251.194 69.6111 251.056 77.1667C251 79.6667 251.972 80.6111 254.444 80.6111H260.917C259.889 79.1667 259.556 66.25 259.528 50.5278H267.056C273.417 50.5278 276.722 51.2222 278.167 52.4722C279.361 49.1944 279.417 46.4444 276.222 46.4444H259.528C259.556 40.0833 259.778 31.1944 259.889 25.2778H270.167V25.3056Z" fill="#E4251B"/>
<path d="M90.4444 48.3333C87.5 41.5 84.5833 34.8333 82.8889 30.9444C82.4444 29.9167 81.4167 29.25 80.3056 29.25H78.8056C77.2778 34.3889 74.3889 40.3056 70.5278 48.3056C67.75 54.0833 65.0555 59.6944 62.75 64.0556C61.6111 66.1667 62.3056 67.3889 64.3056 67.3889H67.4167C67 66.0278 68.6389 61.4444 71.0278 55.8889H85.75C86.8889 58.8333 87.9722 61.8611 89.0833 65.0833C89.5556 66.4722 90.8333 67.3889 92.3055 67.3889H99.4167C97.4722 65.6667 94.8055 58.4444 90.4444 48.3333ZM72.3055 52.8611C74.3889 48.1667 76.8055 43.1111 78.8889 38.7778C80.9167 43.8333 82.7778 48.3333 84.5278 52.8611H72.3055Z" fill="#E4251B"/>
<path d="M67.8889 72.1389C64.2778 75.8055 58.8055 77.8055 53.0556 77.8055C36.0278 77.8055 27.8889 63.8333 27.8889 50.2222C27.8889 37.3055 35.25 24.6944 49.3056 24.6944C58.6389 24.6944 65.1389 30.2222 66.5 36.25C67.8055 34.2222 69.8889 31.1667 69.8889 28.4722C69.8889 23.7222 62.25 19.8055 50.1944 19.8055C29.8056 19.8055 18.8889 36.4722 18.8889 52.75C18.8889 68.3055 28.9167 83.5 50.2222 83.5C56.2778 83.5 62.7222 81.8611 67.5 78.8333C68.25 78.3611 68.6111 77.5 68.5 76.6389L67.8889 72.1389Z" fill="#E4251B"/>
<path d="M0 145.5H300V154.5H0V145.5Z" fill="#E4251B"/>
</g>
<defs>
<clipPath id="clip0_73_217">
<rect width="300" height="300" fill="white"/>
</clipPath>
</defs>
</svg>
